<svg
	width="100%"
	height="100%"
	viewBox="0 0 600 600"
	fill="none"
	xmlns="http://www.w3.org/2000/svg"
>
	<path
		d="M547.86 250.932C489.372 150.756 330.72 186.432 298.32 137.712C281.724 112.8 263.16 83.844 236.232 68.808C210.564 54.408 180.804 49.356 154.86 51.252C62.208 58.032 22.932 140.928 40.728 231.96C64.488 353.388 172.128 477.432 300 478.296C366.888 478.8 430.8 454.8 480.84 421.044L481.956 420.288C531.996 386.22 592.524 327.408 547.86 250.932Z"
		fill="#8A2BE2"
	/>
	<path
		opacity="0.7"
		d="M547.86 250.932C489.372 150.756 330.72 186.432 298.32 137.712C281.724 112.8 263.16 83.844 236.232 68.808C210.564 54.408 180.804 49.356 154.86 51.252C62.208 58.032 22.932 140.928 40.728 231.96C64.488 353.388 172.128 477.432 300 478.296C366.888 478.8 430.8 454.8 480.84 421.044L481.956 420.288C531.996 386.22 592.524 327.408 547.86 250.932Z"
		fill="white"
	/>
	<path
		d="M93.828 258.216H87.324C80.3446 258.216 73.651 260.989 68.7158 265.924C63.7806 270.859 61.008 277.553 61.008 284.532V428.94C61.008 435.919 63.7806 442.613 68.7158 447.548C73.651 452.483 80.3446 455.256 87.324 455.256H176.556C183.535 455.256 190.229 452.483 195.164 447.548C200.099 442.613 202.872 435.919 202.872 428.94"
		stroke="#263238"
		stroke-width="1.10311"
		stroke-linecap="round"
		stroke-linejoin="round"
		stroke-dasharray="4.41 4.41"
	/>
	<path
		d="M195.6 121.956V93.432C195.6 89.164 197.293 85.0703 200.308 82.049C203.322 79.0277 207.412 77.3255 211.68 77.316H327.72C331.994 77.316 336.093 79.0139 339.116 82.0363C342.138 85.0586 343.836 89.1578 343.836 93.432"
		stroke="#263238"
		stroke-width="1.10311"
		stroke-linecap="round"
		stroke-linejoin="round"
		stroke-dasharray="4.41 4.41"
	/>
	<path
		d="M300 566.592C426.928 566.592 529.824 552.215 529.824 534.48C529.824 516.745 426.928 502.368 300 502.368C173.072 502.368 70.176 516.745 70.176 534.48C70.176 552.215 173.072 566.592 300 566.592Z"
		fill="#8A2BE2"
	/>
	<path
		opacity="0.5"
		d="M300 566.592C426.928 566.592 529.824 552.215 529.824 534.48C529.824 516.745 426.928 502.368 300 502.368C173.072 502.368 70.176 516.745 70.176 534.48C70.176 552.215 173.072 566.592 300 566.592Z"
		fill="white"
	/>
	<path
		d="M516.648 160.224V376.296C516.648 383.359 513.843 390.133 508.85 395.129C503.856 400.125 497.083 402.933 490.02 402.936H109.98C102.917 402.933 96.1438 400.125 91.1504 395.129C86.1571 390.133 83.352 383.359 83.352 376.296V160.224C83.352 159.588 83.352 159.024 83.436 158.352C83.9038 151.631 86.9034 145.337 91.8297 140.74C96.756 136.143 103.242 133.586 109.98 133.584H490.02C496.766 133.587 503.258 136.151 508.186 140.757C513.113 145.364 516.108 151.67 516.564 158.4C516.624 158.976 516.648 159.6 516.648 160.224Z"
		fill="white"
		stroke="#263238"
		stroke-width="1.10311"
		stroke-linecap="round"
		stroke-linejoin="round"
	/>
	<path
		d="M96.312 168.336H505.044V367.932C505.044 374.552 502.414 380.9 497.733 385.581C493.053 390.262 486.704 392.892 480.084 392.892H121.284C114.664 392.892 108.316 390.262 103.635 385.581C98.9537 380.9 96.324 374.552 96.324 367.932V168.336H96.312Z"
		fill="#263238"
	/>
	<path
		opacity="0.2"
		d="M505.056 168.336V367.932C505.091 374.515 502.511 380.842 497.882 385.523C493.253 390.203 486.955 392.854 480.372 392.892H120.996C114.413 392.854 108.115 390.203 103.486 385.523C98.8574 380.842 96.2769 374.515 96.312 367.932V168.336H505.056Z"
		fill="white"
	/>
	<path
		d="M516.564 158.4H83.436C83.9038 151.678 86.9034 145.385 91.8297 140.788C96.756 136.191 103.242 133.634 109.98 133.632H490.02C496.758 133.634 503.244 136.191 508.17 140.788C513.097 145.385 516.096 151.678 516.564 158.4Z"
		fill="#8A2BE2"
		stroke="#263238"
		stroke-width="1.10311"
		stroke-miterlimit="10"
	/>
	<path
		d="M136.656 145.968C136.656 146.901 136.379 147.813 135.861 148.588C135.343 149.364 134.606 149.968 133.745 150.325C132.883 150.682 131.935 150.775 131.02 150.593C130.105 150.411 129.265 149.962 128.605 149.303C127.946 148.643 127.497 147.803 127.315 146.888C127.133 145.973 127.226 145.025 127.583 144.163C127.94 143.302 128.544 142.565 129.32 142.047C130.095 141.529 131.007 141.252 131.94 141.252C133.191 141.252 134.39 141.749 135.275 142.633C136.159 143.518 136.656 144.717 136.656 145.968Z"
		fill="#263238"
	/>
	<path
		d="M156.6 145.968C156.6 146.901 156.323 147.813 155.805 148.588C155.287 149.364 154.55 149.968 153.689 150.325C152.827 150.682 151.879 150.775 150.964 150.593C150.049 150.411 149.209 149.962 148.549 149.303C147.89 148.643 147.441 147.803 147.259 146.888C147.077 145.973 147.17 145.025 147.527 144.163C147.884 143.302 148.488 142.565 149.264 142.047C150.039 141.529 150.951 141.252 151.884 141.252C153.135 141.252 154.334 141.749 155.219 142.633C156.103 143.518 156.6 144.717 156.6 145.968Z"
		fill="#263238"
	/>
	<path
		d="M171.828 150.684C174.433 150.684 176.544 148.573 176.544 145.968C176.544 143.363 174.433 141.252 171.828 141.252C169.223 141.252 167.112 143.363 167.112 145.968C167.112 148.573 169.223 150.684 171.828 150.684Z"
		fill="#263238"
	/>
	<path
		d="M505.044 168.336V367.932C505.044 374.552 502.414 380.9 497.733 385.581C493.053 390.262 486.704 392.892 480.084 392.892H121.284C115.506 392.891 109.908 390.886 105.444 387.218C100.98 383.55 97.9262 378.448 96.804 372.78V372.708C96.4989 371.126 96.3462 369.519 96.348 367.908V168.336H505.044Z"
		stroke="#263238"
		stroke-width="1.10311"
		stroke-miterlimit="10"
	/>
	<path
		d="M504.66 199.2C502.91 198.217 501.049 197.448 499.116 196.908L496.872 186.888H487.344L485.124 196.908C483.18 197.438 481.31 198.208 479.556 199.2L470.952 193.692L464.22 200.4L469.632 209.004C468.641 210.758 467.871 212.629 467.34 214.572L457.32 216.792V226.32L467.34 228.564C467.865 230.517 468.635 232.396 469.632 234.156L464.124 242.82L470.868 249.552L479.52 244.044C481.27 245.038 483.136 245.811 485.076 246.348L487.308 256.356H496.8L499.032 246.348C500.966 245.806 502.828 245.032 504.576 244.044L505.02 244.332V198.96L504.66 199.2ZM492.132 234C489.696 234 487.316 233.278 485.291 231.924C483.266 230.571 481.688 228.647 480.756 226.397C479.825 224.146 479.581 221.67 480.057 219.282C480.533 216.893 481.707 214.699 483.43 212.978C485.153 211.256 487.348 210.085 489.737 209.611C492.126 209.137 494.602 209.383 496.852 210.317C499.101 211.25 501.023 212.83 502.375 214.857C503.726 216.883 504.446 219.264 504.444 221.7C504.444 223.316 504.125 224.917 503.507 226.41C502.888 227.903 501.981 229.259 500.837 230.402C499.694 231.544 498.336 232.45 496.843 233.067C495.349 233.685 493.748 234.002 492.132 234Z"
		fill="#263238"
	/>
	<path
		d="M332.94 208.86V188.772L311.82 184.08C310.68 179.999 309.069 176.065 307.02 172.356L309.576 168.336H209.856L212.316 172.248C210.241 175.94 208.629 179.874 207.516 183.96L186.384 188.664V208.8L207.516 213.516C208.629 217.633 210.241 221.598 212.316 225.324L200.712 243.576L214.932 257.784L233.172 246.168C236.872 248.25 240.808 249.881 244.896 251.028L249.6 272.088H269.64L274.368 250.98C278.442 249.828 282.366 248.196 286.056 246.12L304.308 257.736L318.516 243.528L306.984 225.276C309.028 221.573 310.639 217.647 311.784 213.576L332.94 208.86ZM259.74 224.772C254.606 224.772 249.588 223.25 245.32 220.398C241.051 217.546 237.724 213.492 235.76 208.749C233.795 204.006 233.281 198.787 234.283 193.752C235.284 188.717 237.756 184.092 241.386 180.462C245.016 176.832 249.641 174.36 254.676 173.359C259.711 172.357 264.93 172.871 269.673 174.836C274.416 176.8 278.47 180.127 281.322 184.396C284.174 188.664 285.696 193.682 285.696 198.816C285.698 202.225 285.027 205.601 283.723 208.751C282.42 211.901 280.508 214.763 278.097 217.173C275.687 219.584 272.825 221.496 269.675 222.799C266.525 224.103 263.149 224.774 259.74 224.772Z"
		fill="#263238"
	/>
	<path
		d="M199.656 346.8L200.508 330.852L183.984 326.196C183.217 322.919 182.082 319.738 180.6 316.716L190.584 302.7L179.88 290.832L164.928 299.232C162.07 297.434 159.014 295.972 155.82 294.876L152.964 277.932L137.028 277.2L132.42 293.772C129.137 294.508 125.954 295.636 122.94 297.132L108.936 287.16L97.044 297.852L105.516 312.816C103.7 315.661 102.233 318.716 101.148 321.912L96.348 322.704V344.304L99.852 345.288C100.579 348.576 101.703 351.763 103.2 354.78L96.312 364.44L96.768 372.708V372.78L103.884 380.664L118.86 372.204C121.713 374.039 124.78 375.518 127.992 376.608L130.8 392.88L130.932 393.564L146.868 394.404L147.288 392.88L151.476 377.844C154.774 377.106 157.972 375.978 161.004 374.484L174.984 384.444L186.864 373.764L178.464 358.788C180.263 355.946 181.71 352.896 182.772 349.704L199.656 346.8ZM157.332 321.9C154.602 318.864 151.033 316.705 147.077 315.698C143.12 314.69 138.953 314.879 135.104 316.24C131.254 317.6 127.895 320.072 125.45 323.343C123.006 326.613 121.587 330.535 121.372 334.613C121.157 338.69 122.156 342.74 124.243 346.249C126.33 349.758 129.411 352.57 133.096 354.328C136.781 356.086 140.905 356.712 144.945 356.126C148.986 355.54 152.762 353.768 155.796 351.036C159.847 347.376 162.283 342.261 162.571 336.809C162.858 331.358 160.975 326.014 157.332 321.948V321.9Z"
		fill="#263238"
	/>
	<path
		d="M327.12 323.028C327.737 320.558 328.063 318.025 328.092 315.48L339.552 309.48L336.384 297.852L323.448 298.452C322.138 296.279 320.579 294.265 318.804 292.452L322.632 280.08L312.192 274.08L303.456 283.608C300.991 283.013 298.468 282.691 295.932 282.648L289.932 271.188L278.316 274.344L278.928 287.292C276.755 288.602 274.741 290.16 272.928 291.936L260.544 288.108L254.544 298.536L264.144 307.26C263.523 309.72 263.205 312.247 263.196 314.784L251.712 320.784L254.88 332.4L267.84 331.788C269.124 333.972 270.676 335.988 272.46 337.788L268.608 350.1L279.06 356.1L287.748 346.644C290.216 347.265 292.751 347.584 295.296 347.592L301.296 359.064L312.912 355.908L312.396 344.844L312.312 342.948C314.516 341.651 316.555 340.091 318.384 338.304L330.756 342.144L335.868 333.216L336.732 331.704L327.12 323.028ZM299.676 330.084C296.697 330.906 293.541 330.824 290.609 329.849C287.677 328.875 285.1 327.052 283.205 324.61C281.31 322.169 280.183 319.221 279.967 316.138C279.75 313.056 280.454 309.978 281.989 307.297C283.524 304.615 285.821 302.449 288.588 301.074C291.356 299.7 294.469 299.178 297.534 299.575C300.598 299.972 303.476 301.27 305.801 303.305C308.127 305.34 309.795 308.019 310.596 311.004C311.663 314.982 311.114 319.22 309.068 322.794C307.022 326.369 303.646 328.989 299.676 330.084Z"
		fill="#263238"
	/>
	<path
		d="M459.984 343.476L462.624 327.516L446.472 321.024C446.105 317.623 445.328 314.278 444.156 311.064L455.784 298.116L446.376 284.916L430.344 291.72C427.682 289.586 424.773 287.781 421.68 286.344L420.744 268.956L404.784 266.316L398.244 282.396C394.857 282.794 391.528 283.579 388.32 284.736L375.336 273.108L362.196 282.516L369.012 298.536C367.136 300.878 365.507 303.407 364.152 306.084C363.972 306.456 363.78 306.828 363.612 307.2L346.236 308.16L343.584 324.096L346.2 325.152L359.736 330.612C360.105 333.997 360.883 337.326 362.052 340.524L350.4 353.556L359.82 366.756L375.84 359.916C378.493 362.069 381.398 363.89 384.492 365.34L385.392 382.644L401.34 385.284L407.868 369.324C411.262 368.953 414.598 368.172 417.804 366.996L430.764 378.624L443.964 369.204L437.148 353.172C439.319 350.508 441.153 347.586 442.608 344.472L459.984 343.476ZM415.224 342.756C411.866 345.165 407.87 346.524 403.74 346.662C399.61 346.799 395.532 345.709 392.021 343.528C388.511 341.348 385.726 338.175 384.019 334.412C382.312 330.649 381.759 326.464 382.431 322.386C383.102 318.309 384.968 314.522 387.791 311.505C390.615 308.488 394.27 306.376 398.294 305.436C402.318 304.497 406.531 304.772 410.399 306.226C414.267 307.681 417.616 310.25 420.024 313.608C423.249 318.113 424.553 323.715 423.648 329.181C422.744 334.647 419.705 339.53 415.2 342.756H415.224Z"
		fill="#263238"
	/>
	<path
		d="M243.696 225.324H118.2C109.511 225.324 102.468 232.367 102.468 241.056V414.804C102.468 423.493 109.511 430.536 118.2 430.536H243.696C252.385 430.536 259.428 423.493 259.428 414.804V241.056C259.428 232.367 252.385 225.324 243.696 225.324Z"
		fill="#8A2BE2"
		stroke="#263238"
		stroke-width="1.10311"
		stroke-miterlimit="10"
	/>
	<path
		opacity="0.2"
		d="M243.696 225.324H118.2C109.511 225.324 102.468 232.367 102.468 241.056V414.804C102.468 423.493 109.511 430.536 118.2 430.536H243.696C252.385 430.536 259.428 423.493 259.428 414.804V241.056C259.428 232.367 252.385 225.324 243.696 225.324Z"
		fill="black"
	/>
	<path
		d="M274.032 256.56V430.308C274.034 432.375 273.628 434.422 272.838 436.332C272.048 438.242 270.889 439.978 269.428 441.44C267.967 442.902 266.233 444.062 264.323 444.853C262.414 445.645 260.367 446.052 258.3 446.052H132.804C130.738 446.05 128.693 445.642 126.785 444.85C124.876 444.058 123.143 442.898 121.683 441.436C120.224 439.974 119.066 438.239 118.277 436.329C117.488 434.42 117.082 432.374 117.084 430.308V256.56C117.084 252.39 118.74 248.39 121.688 245.44C124.635 242.49 128.634 240.831 132.804 240.828H258.3C262.472 240.828 266.474 242.485 269.424 245.436C272.375 248.386 274.032 252.388 274.032 256.56Z"
		fill="white"
		stroke="#263238"
		stroke-width="1.10311"
		stroke-linecap="round"
		stroke-linejoin="round"
	/>
	<path
		d="M274.032 256.56V265.86H117.084V256.56C117.084 252.39 118.74 248.39 121.688 245.44C124.635 242.49 128.634 240.831 132.804 240.828H258.3C262.472 240.828 266.474 242.485 269.424 245.436C272.375 248.386 274.032 252.388 274.032 256.56Z"
		fill="#8A2BE2"
		stroke="#263238"
		stroke-width="1.10311"
		stroke-miterlimit="10"
	/>
	<path d="M170.46 276.636H131.844V283.116H170.46V276.636Z" fill="#8A2BE2" />
	<path d="M170.46 334.704H131.844V341.184H170.46V334.704Z" fill="#8A2BE2" />
	<path d="M170.46 387.36H131.844V393.84H170.46V387.36Z" fill="#8A2BE2" />
	<path d="M241.512 292.68H131.844V297.432H241.512V292.68Z" fill="#263238" />
	<path d="M221.736 301.764H131.844V306.396H221.736V301.764Z" fill="#263238" />
	<path d="M233.508 310.704H131.844V315.336H233.508V310.704Z" fill="#263238" />
	<path d="M233.508 319.632H131.844V324.264H233.508V319.632Z" fill="#263238" />
	<path d="M241.512 345.336H131.844V350.088H241.512V345.336Z" fill="#263238" />
	<path d="M221.736 354.42H131.844V359.052H221.736V354.42Z" fill="#263238" />
	<path d="M233.508 363.36H131.844V367.992H233.508V363.36Z" fill="#263238" />
	<path d="M241.512 403.152H131.844V407.904H241.512V403.152Z" fill="#263238" />
	<path d="M221.736 412.248H131.844V416.88H221.736V412.248Z" fill="#263238" />
	<path d="M233.508 421.188H131.844V425.82H233.508V421.188Z" fill="#263238" />
	<path
		d="M450.924 120.348V190.572C450.924 193.036 450.438 195.476 449.495 197.752C448.552 200.029 447.169 202.097 445.426 203.839C443.683 205.581 441.614 206.962 439.337 207.904C437.06 208.846 434.62 209.33 432.156 209.328H270.42C267.956 209.33 265.516 208.846 263.239 207.904C260.962 206.962 258.893 205.581 257.15 203.839C255.407 202.097 254.024 200.029 253.081 197.752C252.138 195.476 251.652 193.036 251.652 190.572V120.348C251.655 115.371 253.634 110.6 257.153 107.081C260.672 103.562 265.443 101.583 270.42 101.58H432.156C437.134 101.58 441.907 103.557 445.427 107.077C448.947 110.597 450.924 115.37 450.924 120.348Z"
		fill="white"
		stroke="#222221"
		stroke-width="1.10311"
		stroke-miterlimit="10"
	/>
	<path
		d="M450.924 120.348V121.956H251.652V120.348C251.655 115.371 253.634 110.6 257.153 107.081C260.672 103.562 265.443 101.583 270.42 101.58H432.156C437.134 101.58 441.907 103.557 445.427 107.077C448.947 110.597 450.924 115.37 450.924 120.348Z"
		fill="#8A2BE2"
		stroke="#263238"
		stroke-width="1.10311"
		stroke-miterlimit="10"
	/>
	<path
		d="M280.932 115.128C280.53 115.531 280.016 115.806 279.457 115.918C278.899 116.03 278.319 115.973 277.793 115.755C277.266 115.538 276.816 115.169 276.499 114.695C276.182 114.221 276.013 113.664 276.013 113.094C276.013 112.524 276.182 111.967 276.499 111.493C276.816 111.019 277.266 110.65 277.793 110.433C278.319 110.215 278.899 110.158 279.457 110.27C280.016 110.382 280.53 110.657 280.932 111.06C281.468 111.601 281.768 112.332 281.768 113.094C281.768 113.856 281.468 114.587 280.932 115.128Z"
		fill="#263238"
	/>
	<path
		d="M294.276 115.128C293.874 115.531 293.36 115.806 292.802 115.918C292.243 116.03 291.663 115.973 291.137 115.755C290.61 115.538 290.16 115.169 289.843 114.695C289.526 114.221 289.357 113.664 289.357 113.094C289.357 112.524 289.526 111.967 289.843 111.493C290.16 111.019 290.61 110.65 291.137 110.433C291.663 110.215 292.243 110.158 292.802 110.27C293.36 110.382 293.874 110.657 294.276 111.06C294.812 111.601 295.112 112.332 295.112 113.094C295.112 113.856 294.812 114.587 294.276 115.128Z"
		fill="#263238"
	/>
	<path
		d="M307.62 115.128C307.218 115.531 306.704 115.806 306.145 115.918C305.587 116.03 305.007 115.973 304.481 115.755C303.954 115.538 303.504 115.169 303.187 114.695C302.87 114.221 302.701 113.664 302.701 113.094C302.701 112.524 302.87 111.967 303.187 111.493C303.504 111.019 303.954 110.65 304.481 110.433C305.007 110.215 305.587 110.158 306.145 110.27C306.704 110.382 307.218 110.657 307.62 111.06C308.156 111.601 308.456 112.332 308.456 113.094C308.456 113.856 308.156 114.587 307.62 115.128Z"
		fill="#263238"
	/>
	<path
		d="M329.496 134.868H264.36V191.172H329.496V134.868Z"
		stroke="#263238"
		stroke-width="1.10311"
		stroke-linecap="round"
		stroke-linejoin="round"
		stroke-dasharray="4.41 4.41"
	/>
	<path d="M414.516 134.868H339.552V138.828H414.516V134.868Z" fill="#263238" />
	<path d="M397.056 143.064H339.552V147.012H397.056V143.064Z" fill="#263238" />
	<path d="M425.172 151.224H339.552V155.22H425.172V151.224Z" fill="#263238" />
	<path d="M412.464 159.18H339.552V163.176H412.464V159.18Z" fill="#263238" />
	<path
		d="M456.372 294.636H419.712C415.384 294.636 411.876 298.144 411.876 302.472V323.988C411.876 328.316 415.384 331.824 419.712 331.824H456.372C460.7 331.824 464.208 328.316 464.208 323.988V302.472C464.208 298.144 460.7 294.636 456.372 294.636Z"
		fill="white"
		stroke="#263238"
		stroke-width="1.10311"
		stroke-linecap="round"
		stroke-linejoin="round"
	/>
	<path
		d="M428.76 305.82L418.692 312.132L428.04 320.412"
		stroke="#263238"
		stroke-width="1.10311"
		stroke-linecap="round"
		stroke-linejoin="round"
	/>
	<path
		d="M447.096 321.012L456.144 313.308L445.704 306.468"
		stroke="#263238"
		stroke-width="1.10311"
		stroke-linecap="round"
		stroke-linejoin="round"
	/>
	<path
		d="M433.656 325.764L441.084 302.46"
		stroke="#263238"
		stroke-width="1.10311"
		stroke-linecap="round"
		stroke-linejoin="round"
	/>
	<path
		d="M324.604 532.244C324.604 532.244 289.804 542.216 284.944 543.944C280.528 545.504 268.552 549.704 259.564 548.396C258.696 548.272 257.838 548.087 256.996 547.844C247.888 545.132 243.796 542.6 242.596 536.876C241.396 531.152 245.932 526.928 250.3 524.228C254.668 521.528 278.356 518.708 278.356 518.708L284.08 520.388L324.604 532.244Z"
		fill="#8A2BE2"
	/>
	<path
		d="M259.564 548.396C258.696 548.272 257.838 548.087 256.996 547.844C247.888 545.132 243.796 542.6 242.596 536.876C241.396 531.152 245.932 526.928 250.3 524.228C254.668 521.528 278.356 518.708 278.356 518.708L284.08 520.388C278.896 522.788 259.6 524.096 255.388 526.52C251.176 528.944 249.148 533.504 251.632 539.72C252.964 542.96 256.516 546.14 259.564 548.396Z"
		fill="white"
	/>
	<path
		d="M319.372 533.66C319.372 533.66 293.236 540.428 282.868 544.76C272.5 549.092 252.736 550.988 245.668 542.06C238.6 533.132 244.852 525.428 251.896 523.712C258.94 521.996 273.184 519.296 280.96 520.388"
		stroke="#263238"
		stroke-width="1.10311"
		stroke-linecap="round"
		stroke-linejoin="round"
	/>
	<path
		d="M260.08 547.928C260.08 547.928 246.784 540.632 251.2 530.408C254.464 522.872 272.2 524.504 280.984 520.388"
		stroke="#263238"
		stroke-width="1.10311"
		stroke-linecap="round"
		stroke-linejoin="round"
	/>
	<path
		d="M430.6 550.016C430.24 553.616 428.98 556.988 425.38 559.112C422.98 560.528 419.572 561.368 414.688 561.32C402.484 561.164 379.54 552.44 379.54 552.44L358.06 540.56L369.232 522.884L372.292 518.084L380.188 519.86C380.188 519.86 386.728 523.568 393.304 526.52C399.88 529.472 415.852 530.12 421.48 534.644C427.108 539.168 431.212 544.088 430.6 550.016Z"
		fill="#8A2BE2"
	/>
	<path
		d="M430.6 550.016C430.24 553.616 428.98 556.988 425.38 559.112C426.417 555.573 426.205 551.786 424.78 548.384C422.38 542.996 414.568 538.244 404.296 537.452C394.024 536.66 386.164 531.86 382.048 529.712C378.832 528.044 372.052 524.396 369.232 522.884L372.292 518.084L380.188 519.86C380.188 519.86 386.728 523.568 393.304 526.52C399.88 529.472 415.852 530.12 421.48 534.644C427.108 539.168 431.212 544.088 430.6 550.016Z"
		fill="white"
	/>
	<path
		d="M362.824 543.896C378.285 552.884 395.374 558.72 413.104 561.068C417.016 561.536 421.564 561.608 424.18 558.668C424.876 557.819 425.394 556.839 425.703 555.785C426.012 554.732 426.106 553.627 425.98 552.536C425.512 547.016 420.868 542.648 415.78 540.452C410.692 538.256 405.088 537.752 399.676 536.54C394.293 535.327 389.09 533.423 384.196 530.876C380.308 528.848 376.552 526.388 372.268 525.476C367.984 524.564 362.884 525.668 360.592 529.412"
		stroke="#263238"
		stroke-width="1.10311"
		stroke-linecap="round"
		stroke-linejoin="round"
	/>
	<path
		d="M422.74 560.168C424.75 559.206 426.508 557.786 427.873 556.024C429.237 554.261 430.171 552.204 430.6 550.016C431.38 544.82 428.416 539.588 424.252 536.396C420.088 533.204 414.868 531.692 409.72 530.624C404.572 529.556 399.304 528.836 394.372 526.88C386.848 523.928 379.42 518.12 371.572 520.196"
		stroke="#263238"
		stroke-width="1.10311"
		stroke-linecap="round"
		stroke-linejoin="round"
	/>
	<path
		d="M387.064 357.992L350.716 344.168L350.26 343.988C350.26 343.988 350.392 343.028 350.5 341.588C350.728 338.684 350.848 333.956 349.48 332.36C347.452 329.96 341.716 331.976 336.112 329.408C330.508 326.84 320.152 331.436 320.152 331.436C320.152 331.436 312.664 330.056 309.352 335.456C307.672 339.812 308.248 346.256 308.248 346.256L307.564 346.496C303.232 348.116 279.664 356.984 274.684 360.548C269.176 364.448 263.08 404.492 261.124 416.252C259.168 428.012 255.688 438.608 257.452 442.652C259.216 446.696 284.536 466.196 299.104 471.224C313.672 476.252 365.332 474.824 365.332 474.824C365.332 474.824 366.172 474.596 367.672 474.116C376.408 471.308 407.404 459.716 423.856 432.5C423.88 432.548 407.944 380.312 387.064 357.992ZM288.856 425.348C286.18 427.244 287.656 434.588 287.656 434.588L283.108 430.58L294.532 402.488L299.404 424.088C299.404 424.088 291.532 423.464 288.856 425.348ZM380.248 443.192C378.988 443.84 383.848 430.34 381.544 427.28C379.24 424.22 372.292 424.508 372.292 424.508L372.88 420.824L376.996 399.704L378.364 398.084C378.364 398.084 392.5 422.312 395.032 430.856C395.032 430.88 379.624 443.192 380.248 443.192Z"
		fill="#8A2BE2"
	/>
	<path
		d="M318.436 270.38L299.668 290.3C299.668 290.3 297.088 292.592 298.108 298.364C299.128 304.136 301.528 309.164 303.34 309.5C304.774 309.751 306.227 309.88 307.684 309.884C307.684 309.884 311.704 318.596 314.56 322.016C314.56 322.016 315.544 335.468 315.016 339.2C315.016 339.2 321.76 345.092 328.108 345.836C334.456 346.58 344.26 336.86 344.26 336.86L346.66 324.956C346.66 324.956 352.42 316.22 352.804 313.892C353.188 311.564 355.828 312.164 357.124 311.012C358.42 309.86 361.408 304.736 361.924 299.888C362.44 295.04 362.452 289.472 356.824 291.104C351.94 289.796 355 279.476 355 279.476L346.42 271.916L318.436 270.38Z"
		fill="white"
	/>
	<path
		opacity="0.5"
		d="M350.716 344.168C350.433 344.91 350.108 345.635 349.744 346.34C346.648 352.172 333.16 363.296 333.16 363.296L329.08 350.756L326.848 363.296C322.348 361.328 308.62 349.436 308.62 349.436C308.62 349.436 308.152 348.32 307.588 346.58L308.272 346.34C308.272 346.34 307.696 339.848 309.376 335.54C312.664 330.14 320.176 331.52 320.176 331.52C320.176 331.52 330.532 326.924 336.136 329.492C341.74 332.06 347.476 330.068 349.504 332.444C351.532 334.82 350.284 344.036 350.284 344.036L350.716 344.168Z"
		fill="white"
	/>
	<path
		opacity="0.2"
		d="M387.064 357.992L350.716 344.168L350.26 343.988C350.26 343.988 350.392 343.028 350.5 341.588L349.744 346.304L344.368 353.6C350.114 355.716 355.725 358.185 361.168 360.992C363.773 362.388 365.899 364.535 367.268 367.154C368.638 369.774 369.188 372.744 368.848 375.68L362.152 432.98L359.404 465.512L367.696 474.116C376.432 471.308 407.428 459.716 423.88 432.5C423.88 432.548 407.944 380.312 387.064 357.992ZM380.248 443.192C378.988 443.84 383.848 430.34 381.544 427.28C379.24 424.22 372.292 424.508 372.292 424.508L372.88 420.824L376.996 399.704L378.364 398.084C378.364 398.084 392.5 422.312 395.032 430.856C395.032 430.88 379.624 443.192 380.248 443.192Z"
		fill="black"
	/>
	<path
		opacity="0.2"
		d="M301.816 427.28L296.164 408.392C296.164 408.392 286.024 373.82 279.076 365.3L280.9 389.612C280.9 389.612 274.9 418.652 269.416 427.28C263.932 435.908 262.708 438.08 269.416 438.08C276.124 438.08 292.456 451.088 292.456 451.088L291.196 440.288L301.816 427.28ZM287.572 434.588L283.024 430.58L294.448 402.488L299.32 424.088C299.32 424.088 291.496 423.5 288.82 425.384C286.144 427.268 287.572 434.588 287.572 434.588Z"
		fill="black"
	/>
	<path
		d="M314.56 322.016C314.56 322.016 315.592 332.204 314.56 336.86"
		stroke="#263238"
		stroke-width="1.10311"
		stroke-linecap="round"
		stroke-linejoin="round"
	/>
	<path
		d="M345.304 335.492C345.315 332.216 345.693 328.952 346.432 325.76"
		stroke="#263238"
		stroke-width="1.10311"
		stroke-linecap="round"
		stroke-linejoin="round"
	/>
	<path
		d="M348.028 277.976C348.028 277.976 354.196 285.716 353.872 291.572C353.548 297.428 353.092 304.364 353.248 311.156C353.404 317.948 342.34 332.18 336.652 333.44C330.964 334.7 326.068 335.024 322.432 331.388C318.796 327.752 315.16 322.7 310.432 316.22C305.704 309.74 306.832 295.52 306.832 295.52"
		stroke="#263238"
		stroke-width="1.10311"
		stroke-linecap="round"
		stroke-linejoin="round"
	/>
	<path
		d="M333.172 300.932C332.796 303.059 332.635 305.218 332.692 307.376C332.568 309.196 333.133 310.995 334.276 312.416C334.96 313.112 335.944 313.676 336.076 314.636C336.072 315.068 335.952 315.492 335.729 315.861C335.505 316.231 335.185 316.533 334.804 316.736C334.034 317.124 333.292 317.566 332.584 318.056"
		stroke="#263238"
		stroke-width="1.10311"
		stroke-linecap="round"
		stroke-linejoin="round"
	/>
	<path
		d="M323.416 318.8C323.416 318.8 324.124 323.396 330.28 324.356"
		stroke="#263238"
		stroke-width="1.10311"
		stroke-linecap="round"
		stroke-linejoin="round"
	/>
	<path
		d="M324.052 304.436C324.052 305.768 323.476 306.836 322.768 306.836C322.06 306.836 321.484 305.768 321.484 304.436C321.484 303.104 322.06 302.036 322.768 302.036C323.476 302.036 324.052 303.116 324.052 304.436Z"
		fill="#263238"
	/>
	<path
		d="M342.424 305.012C342.424 306.344 341.848 307.412 341.14 307.412C340.432 307.412 339.856 306.332 339.856 305.012C339.856 303.692 340.432 302.612 341.14 302.612C341.848 302.612 342.424 303.68 342.424 305.012Z"
		fill="#263238"
	/>
	<path
		d="M338.716 299.192C338.716 299.192 344.716 293.192 349.744 299.888"
		stroke="#263238"
		stroke-width="2.20621"
		stroke-linecap="round"
		stroke-linejoin="round"
	/>
	<path
		d="M326.08 299.312C326.08 299.312 322.288 295.064 316.312 299.312"
		stroke="#263238"
		stroke-width="2.20621"
		stroke-linecap="round"
		stroke-linejoin="round"
	/>
	<path
		d="M315.016 327.68C315.016 327.68 318.676 337.76 326.848 340.628C335.02 343.496 345.868 328.628 345.868 328.628L345.304 326.696C345.304 326.696 338.188 335.936 330.28 334.364C322.372 332.792 314.56 322.064 314.56 322.064L315.016 327.68Z"
		fill="#263238"
	/>
	<path
		d="M307.684 309.5C307.684 309.5 302.812 311.216 301.516 307.424C300.22 303.632 295.78 293.636 299.668 290.3C303.556 286.964 306.676 294.704 306.676 294.704"
		stroke="#263238"
		stroke-width="1.10311"
		stroke-linecap="round"
		stroke-linejoin="round"
	/>
	<path
		d="M353.236 311.564C353.236 311.564 357.76 312.476 359.056 308.684C360.352 304.892 364.792 294.896 360.904 291.56C357.016 288.224 353.896 295.964 353.896 295.964"
		stroke="#263238"
		stroke-width="1.10311"
		stroke-linecap="round"
		stroke-linejoin="round"
	/>
	<path
		d="M306.676 304.436C308.368 304.169 309.895 303.268 310.948 301.916C311.59 300.729 311.998 299.43 312.148 298.088C312.593 295.536 312.818 292.951 312.82 290.36C312.767 289.348 312.86 288.334 313.096 287.348C313.456 286.357 314.011 285.447 314.728 284.672C316.42 282.68 318.472 281 320.092 278.936C320.96 277.962 321.621 276.821 322.033 275.584C322.446 274.346 322.602 273.037 322.492 271.736C326.204 274.797 330.542 277.008 335.201 278.212C339.859 279.417 344.725 279.586 349.456 278.708C358.036 277.028 366.256 269.504 365.26 260.048C365.072 258.463 364.392 256.976 363.316 255.797C362.24 254.617 360.821 253.805 359.26 253.472C355.024 252.416 351.22 254.672 347.38 256.124C340.384 258.764 333.532 254.228 326.464 253.472C320.464 252.812 312.988 253.568 309.844 259.58C309.844 259.58 299.044 260.852 294.244 269.78C289.444 278.708 298.528 291.056 298.528 291.056C298.528 291.056 302.128 286.64 306.844 295.568L306.676 304.436Z"
		fill="#263238"
	/>
	<path
		d="M348.772 275.696C348.772 275.696 345.964 290.336 353.296 297.428C353.296 297.428 354.904 293.024 356.524 291.944C357.692 289.346 358.186 286.496 357.962 283.656C357.738 280.816 356.801 278.079 355.24 275.696C349.816 267.176 348.772 275.696 348.772 275.696Z"
		fill="#263238"
	/>
	<path
		opacity="0.2"
		d="M362.14 259.04C361.496 261.038 360.404 262.862 358.949 264.374C357.493 265.886 355.711 267.045 353.74 267.764C343.564 271.916 333.688 267.32 323.488 266.42C315.172 265.676 305.992 273.188 305.404 281.732"
		stroke="white"
		stroke-width="1.10311"
		stroke-linecap="round"
		stroke-linejoin="round"
	/>
	<path
		opacity="0.2"
		d="M299.128 279.476C299.252 276.105 300.334 272.838 302.247 270.059C304.159 267.279 306.823 265.102 309.928 263.78"
		stroke="white"
		stroke-width="1.10311"
		stroke-linecap="round"
		stroke-linejoin="round"
	/>
	<path
		d="M312.208 335.492C316.683 340.156 322.082 343.834 328.06 346.292C328.06 346.292 340.24 342.752 346.432 334.292"
		stroke="#263238"
		stroke-width="1.10311"
		stroke-linecap="round"
		stroke-linejoin="round"
	/>
	<path
		d="M324.655 314.207C330.064 311.726 332.438 305.329 329.957 299.92C327.476 294.51 321.079 292.137 315.67 294.618C310.26 297.099 307.886 303.496 310.367 308.905C312.849 314.315 319.245 316.689 324.655 314.207Z"
		stroke="#263238"
		stroke-width="1.10311"
		stroke-linecap="round"
		stroke-linejoin="round"
	/>
	<path
		d="M345.536 315.156C351.443 314.431 355.644 309.054 354.919 303.147C354.193 297.24 348.817 293.039 342.91 293.765C337.003 294.49 332.802 299.866 333.527 305.773C334.253 311.681 339.629 315.881 345.536 315.156Z"
		stroke="#263238"
		stroke-width="1.10311"
		stroke-linecap="round"
		stroke-linejoin="round"
	/>
	<path
		d="M314.56 331.472C313.468 331.759 312.445 332.263 311.552 332.953C310.66 333.644 309.915 334.508 309.364 335.492C307.456 338.852 308.608 349.424 308.608 349.424C308.608 349.424 318.46 359.168 326.848 363.284L329.32 349.376L333.16 363.284C333.16 363.284 346.144 354.104 349.744 346.34C349.744 346.34 350.944 337.28 349.744 334.34C349.471 333.524 348.952 332.812 348.258 332.302C347.563 331.793 346.728 331.511 345.868 331.496"
		stroke="#263238"
		stroke-width="1.10311"
		stroke-linecap="round"
		stroke-linejoin="round"
	/>
	<path
		d="M299.128 424.52C299.128 424.52 295.276 398.72 290.152 388.196"
		stroke="#263238"
		stroke-width="1.10311"
		stroke-linecap="round"
		stroke-linejoin="round"
	/>
	<path
		d="M279.076 365.3C282.059 369.54 284.722 373.997 287.044 378.632"
		stroke="#263238"
		stroke-width="1.10311"
		stroke-linecap="round"
		stroke-linejoin="round"
	/>
	<path
		d="M380.248 384.56C381.282 380.247 382.7 376.034 384.484 371.972"
		stroke="#263238"
		stroke-width="1.10311"
		stroke-linecap="round"
		stroke-linejoin="round"
	/>
	<path
		d="M372.292 424.52C372.292 424.52 375.064 406.832 378.376 392.264"
		stroke="#263238"
		stroke-width="1.10311"
		stroke-linecap="round"
		stroke-linejoin="round"
	/>
	<path
		d="M376.996 399.68C379.675 396.128 383.442 393.549 387.724 392.336"
		stroke="#263238"
		stroke-width="1.10311"
		stroke-linecap="round"
		stroke-linejoin="round"
	/>
	<path
		d="M350.272 343.988C350.272 343.988 372.628 352.928 387.064 358.004C387.064 358.004 404.824 374.696 423.868 432.548C423.868 432.548 406.42 461.9 373.228 471.308"
		stroke="#263238"
		stroke-width="1.10311"
		stroke-linecap="round"
		stroke-linejoin="round"
	/>
	<path
		d="M378.988 444.236L395.032 430.88C395.032 430.88 403.516 424.436 412.336 428.84"
		stroke="#263238"
		stroke-width="1.10311"
		stroke-linecap="round"
		stroke-linejoin="round"
	/>
	<path
		d="M378.376 398.084C378.376 398.084 391.636 417.68 395.032 430.88"
		stroke="#263238"
		stroke-width="1.10311"
		stroke-linecap="round"
		stroke-linejoin="round"
	/>
	<path
		d="M287.752 435.332L283.06 430.88C283.06 430.88 276.1 429.68 268.204 434.948"
		stroke="#263238"
		stroke-width="1.10311"
		stroke-linecap="round"
		stroke-linejoin="round"
	/>
	<path
		d="M283.06 430.88C283.06 430.88 288.892 411.68 294.64 401.852"
		stroke="#263238"
		stroke-width="1.10311"
		stroke-linecap="round"
		stroke-linejoin="round"
	/>
	<path
		d="M308.272 346.34C308.272 346.34 276.1 358.412 272.944 361.94C269.788 365.468 257.8 432.968 257.476 440.696C257.2 447.608 282.256 463.124 294.676 469.664"
		stroke="#263238"
		stroke-width="1.10311"
		stroke-linecap="round"
		stroke-linejoin="round"
	/>
	<path
		d="M332.332 369.152C332.332 369.572 332.207 369.983 331.974 370.332C331.74 370.682 331.409 370.954 331.02 371.115C330.632 371.275 330.205 371.317 329.793 371.236C329.381 371.154 329.003 370.951 328.706 370.654C328.409 370.357 328.206 369.979 328.124 369.567C328.043 369.155 328.085 368.728 328.245 368.34C328.406 367.951 328.678 367.62 329.028 367.386C329.377 367.153 329.788 367.028 330.208 367.028C330.487 367.027 330.764 367.081 331.022 367.187C331.281 367.293 331.516 367.449 331.713 367.647C331.911 367.844 332.067 368.079 332.173 368.338C332.279 368.596 332.333 368.873 332.332 369.152Z"
		fill="#263238"
	/>
	<path
		d="M369.556 482.216H296.356C295.901 482.216 295.464 482.036 295.142 481.714C294.82 481.392 294.64 480.955 294.64 480.5C294.64 480.045 294.82 479.609 295.142 479.287C295.464 478.965 295.901 478.784 296.356 478.784H369.556C370.011 478.784 370.447 478.965 370.769 479.287C371.091 479.609 371.272 480.045 371.272 480.5C371.272 480.955 371.091 481.392 370.769 481.714C370.447 482.036 370.011 482.216 369.556 482.216Z"
		fill="#263238"
	/>
	<path
		d="M372.124 476.48L381.928 430.4C382.08 429.686 382.07 428.946 381.899 428.236C381.729 427.526 381.401 426.863 380.941 426.296C380.481 425.728 379.899 425.271 379.24 424.958C378.58 424.644 377.858 424.483 377.128 424.484H291.568C290.843 424.484 290.128 424.645 289.474 424.955C288.819 425.265 288.241 425.716 287.782 426.277C287.323 426.837 286.994 427.492 286.818 428.195C286.643 428.897 286.626 429.63 286.768 430.34L295.564 474.884C295.779 475.978 296.362 476.966 297.215 477.684C298.068 478.402 299.141 478.807 300.256 478.832L367.204 480.368C368.348 480.394 369.465 480.019 370.363 479.31C371.261 478.6 371.884 477.599 372.124 476.48Z"
		fill="white"
		stroke="#263238"
		stroke-width="1.10311"
		stroke-linecap="round"
		stroke-linejoin="round"
	/>
	<path
		d="M340.9 451.076C340.897 452.426 340.495 453.745 339.743 454.866C338.991 455.988 337.924 456.861 336.676 457.376C335.428 457.891 334.056 458.024 332.732 457.76C331.408 457.495 330.193 456.844 329.239 455.888C328.286 454.933 327.636 453.716 327.374 452.392C327.111 451.068 327.247 449.696 327.765 448.449C328.282 447.202 329.157 446.136 330.279 445.386C331.402 444.636 332.722 444.236 334.072 444.236C334.969 444.236 335.858 444.413 336.687 444.757C337.517 445.101 338.27 445.605 338.904 446.24C339.538 446.876 340.041 447.63 340.383 448.46C340.726 449.289 340.901 450.179 340.9 451.076Z"
		fill="#263238"
	/>
	<path
		d="M354.328 428.888H364.492"
		stroke="#263238"
		stroke-width="1.10311"
		stroke-linecap="round"
		stroke-linejoin="round"
	/>
	<path
		d="M305.788 428.888H344.368"
		stroke="#263238"
		stroke-width="1.10311"
		stroke-linecap="round"
		stroke-linejoin="round"
	/>
	<path
		d="M372.292 525.404L364.492 545.876C364.492 545.876 344.596 540.86 319.12 535.64C292.468 530.18 264.64 523.112 250.204 497.78C248.452 494.696 247.276 491.048 248.104 487.592C250.18 478.844 261.568 476.468 269.068 475.592C273.783 475.082 278.521 474.818 283.264 474.8C285.664 474.8 293.644 473.492 295.576 474.92C298.478 477.038 301.576 478.874 304.828 480.404C309.088 482.216 371.272 478.784 371.272 478.784C372.354 476.425 373.016 473.895 373.228 471.308C383.008 466.34 405.628 462.14 415.228 464C430.264 466.916 439.036 475.688 437.368 484.88C435.7 494.072 402.484 518.72 372.292 525.404Z"
		fill="#263238"
	/>
	<path
		d="M372.292 525.404C372.292 525.404 353.368 520.388 337.912 509.948C322.456 499.508 310.384 487.388 288.844 489.896"
		stroke="white"
		stroke-width="1.10311"
		stroke-linecap="round"
		stroke-linejoin="round"
	/>
	<path
		d="M334.372 507.488C344.14 504.68 351.304 498.356 359.14 492.296C367.405 485.663 376.28 479.829 385.648 474.872"
		stroke="white"
		stroke-width="1.10311"
		stroke-linecap="round"
		stroke-linejoin="round"
	/>
	<path
		d="M330.928 306.14H333.796"
		stroke="#263238"
		stroke-width="1.10311"
		stroke-linecap="round"
		stroke-linejoin="round"
	/>
	<path
		d="M489.239 423.226C495.48 425.413 502.181 425.96 508.696 424.816C515.211 423.673 521.321 420.874 526.437 416.692C539.465 405.79 543.55 387.827 546.874 371.195C550.151 354.796 553.428 338.399 556.705 322L536.123 336.13C521.321 346.291 506.186 356.778 495.938 371.497C485.689 386.215 481.216 406.307 489.45 422.233"
		fill="#9350CE"
	/>
	<path
		d="M490.998 482.787C488.915 467.657 486.773 452.334 488.234 437.042C489.532 423.463 493.687 410.199 502.147 399.323C506.638 393.562 512.102 388.625 518.294 384.735C519.909 383.719 521.395 386.271 519.787 387.281C509.073 394.034 500.786 404.002 496.121 415.752C490.969 428.819 490.141 443.061 491.029 456.942C491.566 465.335 492.704 473.674 493.851 482.002C493.941 482.379 493.885 482.776 493.693 483.113C493.501 483.448 493.188 483.701 492.818 483.816C492.439 483.918 492.036 483.867 491.696 483.673C491.355 483.481 491.104 483.162 490.998 482.787H490.998Z"
		fill="#CD9292"
		fill-opacity="0.45"
	/>
	<path
		d="M511.063 456.016C513.74 460.072 517.419 463.372 521.746 465.599C526.074 467.826 530.903 468.904 535.77 468.729C548.277 468.138 558.704 459.434 568.091 451.171L595.853 426.732L577.479 425.855C564.265 425.225 550.711 424.637 538.125 428.699C525.539 432.762 513.932 442.539 511.631 455.528"
		fill="#9350CE"
	/>
	<path
		d="M485.111 491.483C495.137 473.795 506.768 454.135 527.549 447.852C533.327 446.111 539.386 445.487 545.399 446.014C547.294 446.177 546.821 449.09 544.929 448.927C534.849 448.093 524.79 450.746 516.443 456.441C508.411 461.892 502.157 469.47 496.864 477.506C493.622 482.429 490.718 487.56 487.813 492.684C486.885 494.322 484.172 493.141 485.111 491.483Z"
		fill="#CD9292"
		fill-opacity="0.45"
	/>
	<path
		d="M469.045 510.102C469.383 506.199 470.788 502.463 473.108 499.302C475.429 496.14 478.574 493.674 482.203 492.171V481.945H499.406V492.494C502.856 494.07 505.825 496.53 508.011 499.623C510.196 502.716 511.52 506.332 511.847 510.102L515.892 556.984H465L469.045 510.102Z"
		fill="#8A2BE2"
	/>
</svg>
