<svg
	width="100%"
	height="100%"
	viewBox="0 0 75 75"
	fill="none"
	xmlns="http://www.w3.org/2000/svg"
>
	<path
		d="M18.8671 56.8353C18.2812 56.7181 17.8125 56.6009 17.2265 56.3665C16.6406 56.1321 16.1718 56.0149 15.7031 55.7806C14.6484 55.3118 13.7109 54.7259 12.7734 54.0227C10.8984 52.7337 9.37496 50.9759 8.20308 48.8665C7.03121 46.8743 6.32808 44.5306 6.21089 42.304C6.09371 41.1321 6.21089 40.0774 6.32808 38.9056C6.44527 38.3196 6.56246 37.8509 6.67964 37.2649C6.79683 36.679 7.03121 36.2103 7.14839 35.6243L7.26558 37.2649C7.26558 37.8509 7.38277 38.3196 7.49996 38.9056C7.61714 39.9603 7.85152 41.0149 8.08589 41.9524C8.55464 43.9446 9.25777 45.8196 10.3125 47.5774C11.3671 49.3352 12.539 50.9759 14.0625 52.4993C14.7656 53.2024 15.5859 53.9056 16.4062 54.6087C16.7578 54.9602 17.2265 55.3118 17.6953 55.6634L18.8671 56.8353Z"
		fill="#42ADE2"
	/>
	<path
		d="M18.5156 61.054C18.1641 61.2884 17.6953 61.4056 17.2266 61.5228C16.7578 61.6399 16.4063 61.7571 15.9375 61.7571C15.1172 61.8743 14.1797 61.9915 13.2422 61.8743C11.4844 61.7571 9.60938 61.2884 8.08594 60.4681C6.44531 59.6477 5.03906 58.3587 4.10156 56.8353C3.63281 56.1321 3.16406 55.3118 2.8125 54.4915C2.69531 54.1399 2.57812 53.6712 2.46094 53.2024C2.46094 52.8509 2.34375 52.4993 2.34375 52.0306C2.69531 52.3821 2.92969 52.7337 3.16406 52.9681C3.51563 53.3196 3.75 53.6712 3.98438 53.9056C4.57031 54.4915 5.03906 55.0774 5.625 55.5462C6.79688 56.6009 7.96875 57.5384 9.375 58.2415C10.6641 58.9446 12.1875 59.5306 13.5938 59.9993C14.2969 60.2337 15.1172 60.3509 15.9375 60.5853C16.2891 60.7024 16.7578 60.7024 17.1094 60.8196C17.6953 60.9368 18.0469 60.9368 18.5156 61.054Z"
		fill="#42ADE2"
	/>
	<path
		d="M44.9999 4.10156C45.5858 4.21875 46.0546 4.45312 46.6405 4.6875C47.2264 4.92188 47.6952 5.15625 48.1639 5.39062C49.2186 5.97656 50.1561 6.5625 51.0936 7.26562C52.9686 8.67188 54.4921 10.5469 55.5468 12.6562C56.6014 14.7656 57.1874 17.1094 57.1874 19.3359C57.1874 20.5078 57.0702 21.5625 56.8358 22.7344C56.7186 23.3203 56.6014 23.7891 56.3671 24.375C56.1327 24.9609 56.0155 25.4297 55.7811 25.8984L55.6639 24.2578C55.6639 23.6719 55.6639 23.2031 55.5468 22.6172L55.1952 19.4531C54.8436 17.4609 54.1405 15.4688 53.203 13.5938C52.2655 11.7188 51.0936 10.0781 49.6874 8.55469C48.9843 7.73438 48.1639 7.03125 47.4608 6.21094C47.1093 5.85938 46.6405 5.50781 46.1718 5.15625L44.9999 4.10156Z"
		fill="#42ADE2"
	/>
	<path
		d="M55.1954 3.63235C55.6642 3.74954 56.0157 3.86673 56.3673 4.1011C56.7189 4.21829 57.1876 4.45267 57.5392 4.68704C58.2423 5.15579 58.9454 5.62454 59.6486 6.21048C60.9376 7.38235 61.9923 8.7886 62.5782 10.4292C63.2814 12.0699 63.5157 13.8277 63.2814 15.5855C63.1642 16.4058 62.9298 17.2261 62.6954 18.0464C62.5782 18.398 62.3439 18.8667 62.2267 19.2183C61.9923 19.5699 61.8751 19.9214 61.5236 20.273V17.9292C61.5236 17.1089 61.4064 16.4058 61.4064 15.7027C61.172 14.1792 60.9376 12.773 60.3517 11.4839C59.7657 10.0777 59.0626 8.90579 58.2423 7.61673C57.7736 7.03079 57.3048 6.32767 56.8361 5.74173C56.6017 5.39017 56.3673 5.15579 56.0157 4.80423C55.7814 4.21829 55.4298 3.86673 55.1954 3.63235Z"
		fill="#42ADE2"
	/>
	<path
		d="M11.7189 21.0932C9.37512 22.1479 8.55481 24.9604 9.6095 27.3042L24.3751 58.1245L32.5783 54.2573L17.8126 23.3198C16.7579 20.976 14.0626 19.9213 11.7189 21.0932Z"
		fill="#FFDD67"
	/>
	<path
		d="M50.5081 45.5854L59.1799 41.4838L42.3049 6.3276C41.1331 3.98385 38.3206 2.92916 35.8596 4.10103C33.5159 5.27291 32.4612 8.08541 33.6331 10.5463L50.5081 45.5854Z"
		fill="#FFDD67"
	/>
	<path
		d="M35.9767 3.98406C35.7423 4.10125 35.5079 4.21844 35.2736 4.45281C37.5001 3.86688 39.8439 4.92156 40.8986 7.03094L57.7736 42.1872L59.297 41.4841L42.422 6.32781C41.2501 3.86688 38.4376 2.81219 35.9767 3.98406Z"
		fill="#EBA352"
	/>
	<path
		d="M32.578 54.1401L41.6015 49.8042L24.3749 13.9448C23.203 11.4839 20.1562 10.312 17.6952 11.4839C15.2343 12.6558 14.1796 15.7026 15.3515 18.1636L32.578 54.1401Z"
		fill="#FFDD67"
	/>
	<path
		d="M17.6953 11.6011C17.4609 11.7183 17.2266 11.8354 16.9922 12.0698C19.2188 11.4839 21.7969 12.5386 22.8516 14.7651L33.5156 37.1479L36.0938 38.6714L24.375 14.062C23.2031 11.4839 20.2734 10.4292 17.6953 11.6011Z"
		fill="#EBA352"
	/>
	<path
		d="M40.1952 46.9918L49.2187 42.6559L31.9921 6.79651C30.8202 4.33558 27.7734 3.1637 25.3124 4.45276C22.8515 5.62464 21.7968 8.67151 22.9687 11.1324L40.1952 46.9918Z"
		fill="#FFDD67"
	/>
	<path
		d="M25.3125 4.33636C25.0781 4.45355 24.8438 4.68792 24.6094 4.80511C26.8359 4.21917 29.4141 5.27386 30.4688 7.50042L42.5391 32.8129L45.1172 34.3364L31.9922 6.7973C30.8203 4.21917 27.7734 3.16449 25.3125 4.33636Z"
		fill="#EBA352"
	/>
	<path
		d="M11.7186 21.0941C11.4843 21.2113 11.2499 21.3285 11.0155 21.5629C13.1249 20.9769 15.3514 22.0316 16.2889 24.141L25.078 42.5394L27.6561 44.0629L17.8124 23.4379C16.7577 20.9769 14.0624 19.9222 11.7186 21.0941Z"
		fill="#EBA352"
	/>
	<path
		d="M71.2499 17.578C68.0858 15.1171 62.9296 17.8124 60.3514 26.2499C58.5936 32.1093 58.3593 33.8671 54.6093 35.6249L52.4999 31.289C52.4999 31.289 19.2186 47.3437 20.5077 49.9218C20.5077 49.9218 24.4921 62.3437 31.2889 68.0858C41.3671 76.7577 64.9218 67.4999 65.9764 45.1171C66.5624 32.1093 74.6483 20.2734 71.2499 17.578Z"
		fill="#FFDD67"
	/>
	<path
		d="M71.2499 17.5779C70.6639 17.1091 69.9608 16.8748 69.2577 16.7576C69.3749 16.8748 69.6093 16.8748 69.7264 16.992C73.2421 19.6873 69.6093 25.8982 67.6171 31.5232C65.9764 35.9763 64.5702 40.5466 64.8046 44.9998C65.7421 64.4529 46.1718 73.7107 34.453 70.1951C45.9374 74.9998 67.2655 65.8591 66.328 45.5857C66.0936 41.1326 67.3827 36.7966 69.1405 32.1091C71.0155 26.4841 74.6483 20.2732 71.2499 17.5779Z"
		fill="#EBA352"
	/>
	<path
		d="M55.6641 35.1562C48.3984 35.9766 37.7344 46.4062 45.2344 57.7734C39.7266 46.2891 48.75 38.5547 54.4922 35.8594C55.0781 35.3906 55.6641 35.1562 55.6641 35.1562Z"
		fill="#EBA352"
	/>
</svg>
